/* XPM */
static char *_796dc903bbb437ffbcb0ccbff63cc58[] = {
/* columns rows colors chars-per-pixel */
"128 128 48 1 ",
"  c #37393B",
". c #3C3C3B",
"X c #413F3A",
"o c #4D4537",
"O c #454139",
"+ c #494338",
"@ c #514737",
"# c #544936",
"$ c #5B4E34",
"% c #5F5033",
"& c #755C2F",
"* c #795E2E",
"= c #604F33",
"- c #635233",
"; c #6B5631",
": c #6F5930",
"> c #725A30",
", c #7D612D",
"< c #83642C",
"1 c #88662B",
"2 c #8C692A",
"3 c #936D29",
"4 c #986F28",
"5 c #9D7327",
"6 c #977028",
"7 c #9A7128",
"8 c #A37626",
"9 c #A67825",
"0 c #AB7B24",
"q c #B37E23",
"w c #B68022",
"e c #BC8421",
"r c #C2871F",
"t c #C5891F",
"y c #CB8C1E",
"u c #D08F1D",
"i c #D4911C",
"p c #DB951B",
"a c #DF981A",
"s c #EC9F17",
"d c #E49A19",
"f c #EA9D18",
"g c #EEA017",
"h c #F6A416",
"j c #F8A515",
"k c #C18720",
"l c #C48820",
"z c None",
/* pixels */
"zzzzzzzzzzzzzzzzzzzzzzzzzzzzzzzzzzzzzzzzzzzzzzzzzzzzzzzzzzzzzzzzzzzzzzzzzzzzzzzzzzzzzzzzzzzzzzzzzzzzzzzzzzzzzzzzzzzzzzzzzzzzzzzz",
"zzzzzzzzzzzzzzzzzzzzzzzzzzzzzzzzzzzzzzzzzzzzzzzzzzzzzzzzzzzzzzzzzzzzzzzzzzzzzzzzzzzzzzzzzzzzzzzzzzzzzzzzzzzzzzzzzzzzzzzzzzzzzzzz",
"zzzzzzzzzzzzzzzzzzzzzzzzzzzzzzzzzzzzzzzzzzzzzzzzzzzzzzzzzzzzzzzzzzzzzzzzzzzzzzzzzzzzzzzzzzzzzzzzzzzzzzzzzzzzzzzzzzzzzzzzzzzzzzzz",
"zzzzzzzzzzzzzzzzzzzzzzzzzzzzzzzzzzzzzzzzzzzzzzzzzzzzzzzzzzzzzzzzzzzzzzzzzzzzzzzzzzzzzzzzzzzzzzzzzzzzzzzzzzzzzzzzzzzzzzzzzzzzzzzz",
"zzzzzzzzzzzzzzzzzzzzzzzzzzzzzzzzzzzzzzzzzzzzzzzzzzzzzzzzzzzzzzzzzzzzzzzzzzzzzzzzzzzzzzzzzzzzzzzzzzzzzzzzzzzzzzzzzzzzzzzzzzzzzzzz",
"zzzzzzzzzzzzzzzzzzzzzzzzzzzzzzzzzzzzzzzzzzzzzzzzzzzzzzzzzzzzzzzzzzzzzzzzzzzzzzzzzzzzzzzzzzzzzzzzzzzzzzzzzzzzzzzzzzzzzzzzzzzzzzzz",
"zzzzzzzzzzzzzzzzzzzzzzzzzzzzzzzzzzzzzzzzzzzzzzzzzzzzzzzzzzzzzzzzzzzzzzzzzzzzzzzzzzzzzzzzzzzzzzzzzzzzzzzzzzzzzzzzzzzzzzzzzzzzzzzz",
"zzzzzzzzzzzzzzzzzzzzzzzzzzzzzzzzzzzzzzzzzzzzzzzzzzzzzzzzzzzzzzzzzzzzzzzzzzzzzzzzzzzzzzzzzzzzzzzzzzzzzzzzzzzzzzzzzzzzzzzzzzzzzzzz",
"zzzzzzzzzzzzzzzzzzzzzzzzzzzzzzzzzzzzzzzzzzzzzzzzzzzzzzz..................zzzzzzzzzzzzzzzzzzzzzzzzzzzzzzzzzzzzzzzzzzzzzzzzzzzzzzz",
"zzzzzzzzzzzzzzzzzzzzzzzzzzzzzzzzzzzzzzzzzzzzzzzzzz............................zzzzzzzzzzzzzzzzzzzzzzzzzzzzzzzzzzzzzzzzzzzzzzzzzz",
"zzzzzzzzzzzzzzzzzzzzzzzzzzzzzzzzzzzzzzzzzzzzzz....................................zzzzzzzzzzzzzzzzzzzzzzzzzzzzzzzzzzzzzzzzzzzzzz",
"zzzzzzzzzzzzzzzzzzzzzzzzzzzzzzzzzzzzzzzzzzz..........................................zzzzzzzzzzzzzzzzzzzzzzzzzzzzzzzzzzzzzzzzzzz",
"zzzzzzzzzzzzzzzzzzzzzzzzzzzzzzzzzzzzzzzzz..............................................zzzzzzzzzzzzzzzzzzzzzzzzzzzzzzzzzzzzzzzzz",
"zzzzzzzzzzzzzzzzzzzzzzzzzzzzzzzzzzzzzzz.......................O.+O.......................zzzzzzzzzzzzzzzzzzzzzzzzzzzzzzzzzzzzzzz",
"zzzzzzzzzzzzzzzzzzzzzzzzzzzzzzzzzzzzz.................#*6qladghhhhgfalq7>#.................zzzzzzzzzzzzzzzzzzzzzzzzzzzzzzzzzzzzz",
"zzzzzzzzzzzzzzzzzzzzzzzzzzzzzzzzzzz...............$3efhhhhhhhhhhhhhhhhhhhhfl6-...............zzzzzzzzzzzzzzzzzzzzzzzzzzzzzzzzzzz",
"zzzzzzzzzzzzzzzzzzzzzzzzzzzzzzzzzz.............-8ahhhhhhhhhhhhhhhhhhhhhhhhhhhhf9-.............zzzzzzzzzzzzzzzzzzzzzzzzzzzzzzzzzz",
"zzzzzzzzzzzzzzzzzzzzzzzzzzzzzzzz............O2phhhhhhhhhfuw86<,>>*<38wifhhhhhhhhhp3+............zzzzzzzzzzzzzzzzzzzzzzzzzzzzzzzz",
"zzzzzzzzzzzzzzzzzzzzzzzzzzzzzz............#0hhhhhhhhu8>@................@&5yhhhhhhhh0$...........zzzzzzzzzzzzzzzzzzzzzzzzzzzzzzz",
"zzzzzzzzzzzzzzzzzzzzzzzzzzzzz...........@qhhhhhhge*+........................+>wghhhhhhw@...........zzzzzzzzzzzzzzzzzzzzzzzzzzzzz",
"zzzzzzzzzzzzzzzzzzzzzzzzzzzz..........O8hhhhhhu,O..............................O,lhhhhhh9+..........zzzzzzzzzzzzzzzzzzzzzzzzzzzz",
"zzzzzzzzzzzzzzzzzzzzzzzzzzz..........&fhhhhhe-....................................-qhhhhhf,..........zzzzzzzzzzzzzzzzzzzzzzzzzzz",
"zzzzzzzzzzzzzzzzzzzzzzzzzz.........+ehhhhhw#...........................$............#qghhhhl+.........zzzzzzzzzzzzzzzzzzzzzzzzzz",
"zzzzzzzzzzzzzzzzzzzzzzzzz.........;fhhhhl-............................,w..............-lhhhhf>.........zzzzzzzzzzzzzzzzzzzzzzzzz",
"zzzzzzzzzzzzzzzzzzzzzzzz.........7hhhhf<.............................,h5................,fhhhh8.........zzzzzzzzzzzzzzzzzzzzzzzz",
"zzzzzzzzzzzzzzzzzzzzzzz........Owhhhhl@.............................*hh3.................@ehhhhl+........zzzzzzzzzzzzzzzzzzzzzzz",
"zzzzzzzzzzzzzzzzzzzzzz........+uhhhh3..............................;hhh<...................2ghhhp@........zzzzzzzzzzzzzzzzzzzzzz",
"zzzzzzzzzzzzzzzzzzzzz........opjhhf;..............................$fhhh,....................-fhhha#........zzzzzzzzzzzzzzzzzzzzz",
"zzzzzzzzzzzzzzzzzzzz........@dhhha@..............................@fhhhh,.....................@ihhhf#........zzzzzzzzzzzzzzzzzzzz",
"zzzzzzzzzzzzzzzzzzzz.......oajhhl+..............................Ophhhhh,......................+lhhha#.......zzzzzzzzzzzzzzzzzzzz",
"zzzzzzzzzzzzzzzzzzz.......Opjjhl+...............................ehhhhhh,........................ehhha@.......zzzzzzzzzzzzzzzzzzz",
"zzzzzzzzzzzzzzzzzz........lhhjlX...............................7hhhhhhh1.........................lhhhi........zzzzzzzzzzzzzzzzzz",
"zzzzzzzzzzzzzzzzzz..X....wghhiX...............................:hhhhhhhh6..........................yhhhq........zzzzzzzzzzzzzzzzz",
"zzzzzzzzzzzzzzzzz.......<hhha+...............................@fhhhhhhhh8..........................+phhh2.......zzzzzzzzzzzzzzzzz",
"zzzzzzzzzzzzzzzz.......#ghhg$................................lhhhhhhhhhw...........................#ghhg%.......zzzzzzzzzzzzzzzz",
"zzzzzzzzzzzzzzzz......Xuhhh,................................2hhhhhhhhhhy............................&hhha.......zzzzzzzzzzzzzzzz",
"zzzzzzzzzzzzzzz.......7hhhw  ..............................@ghhhhhhghhhd.............................8hhh8.......zzzzzzzzzzzzzzz",
"zzzzzzzzzzzzzzz......#hhhpX........X.......................lhhhhhhhhhhhgX.............................ihhh%.......zzzzzzzzzzzzzz",
"zzzzzzzzzzzzzz.......lhhh%................................,hhhhhhhhhhhhh%.............................$hhhu.......zzzzzzzzzzzzzz",
"zzzzzzzzzzzzzz....X.&hhhw ...............................+ahhhhhjhhhhhhh,..............................8hhh<.......zzzzzzzzzzzzz",
"zzzzzzzzzzzzz.......phhf+................................7hhhhhhhhhhhhhh8........X.....................Xdhhf.......zzzzzzzzzzzzz",
"zzzzzzzzzzzzz......,hhh2.............X..................Ohhhhhhhhhhhhhhhy...............................,hhh2......zzzzzzzzzzzzz",
"zzzzzzzzzzzz.......ahha..................X..............7hhhhhhhhhhhhhhhgX.....................X.........ihha.......zzzzzzzzzzzz",
"zzzzzzzzzzzz......>hhh<X.......X.......................Ofhhhhhhhhhhhhhhhj-...............................,hhh,......zzzzzzzzzzzz",
"zzzzzzzzzzz.......lhhaX................................2hhhhhhhhhhhhhhhhh6................................ahhu.......zzzzzzzzzzz",
"zzzzzzzzzzz......$hhh6...........X.....................ahhhhhhhhhhhhhhhhhi............X...................2hhh$......zzzzzzzzzzz",
"zzzzzzzzzzz......5hhh+................................:hhhhhhhhhhhhhhhhhhho...............................+ghh8......zzzzzzzzzzz",
"zzzzzzzzzz.......ahhe....................X............whhhhhhhhhhhhhhhhhhh2................................qhhf.......zzzzzzzzzz",
"zzzzzzzzzz......%hhh*................................Ofhhhhhhhhhhhhhhhhhhhu ...............................;hhh;......zzzzzzzzzz",
"zzzzzzzzzz......5hhgO................................>hhhhhhhhhhhjhhhhhhhhj#................................fhh9......zzzzzzzzzz",
"zzzzzzzzzz......phhe .............................:..whhhhhhhhhhhhhhhhhhhhh7................................whha......zzzzzzzzzz",
"zzzzzzzzz......oghh<.............................#w..ahhhhhhhhhhhhhhhhhhhhhaX......X........................*hhh#......zzzzzzzzz",
"zzzzzzzzz......&hhh@.............................i,.+hhhhhhhhhhhhhhhhhhhhhhj>...............................+hhh,......zzzzzzzzz",
"zzzzzzzzz......8hhd......X......................5h#.&hhhhhhhhhhhhhhhhhhhhhhhy................................phh0......zzzzzzzzz",
"zzzzzzzzz..... lhhe ...........................-hf..5hhhhhhhhhhhhhhhhhhhhhhhj%...............................qhhi......zzzzzzzzz",
"zzzzzzzzz..... fhh3...........................Xphi..khhhhhhhhhhhhhhhhhhhhhhhjr ..............................2hhg......zzzzzzzzz",
"zzzzzzzzz.....+jhh>........................X..whhw..phhhhhhhhhhhhhhhhhhhhhhhhh%..............................-hhh@.....zzzzzzzzz",
"zzzzzzzzz.....%jhh#............X.............-fgh8..fhhhhhhhhhhhhhhhhhhhhhhhhht..............................ohhh;.....zzzzzzzzz",
"zzzzzzzz......*hhh+..........................phhh6..hhhhhhhhhhhhhhjhhhhhhhhhjhj>..............................hhh,......zzzzzzzz",
"zzzzzzzz......2hhf..........................2hhhh2.Xhhhhhhhhhhhhhhghhhhhhhhhhhhp..............................ahh6......zzzzzzzz",
"zzzzzzzz......7hhp.........................Ofghhh2.+hhhhhhhhhhhhhhhhhhhhhhhhhhhh2.............................ihh8......zzzzzzzz",
"zzzzzzzz......8hhi ........................whhhhh3.Ohhhhhhhhhhhhhhhhhhhhhhhhhhhhg@............................lhh9......zzzzzzzz",
"zzzzzzzz......0hhy........................$ghhhhhw .hhhhhhhhhhhhhhhhhhjjjhhhhhhhhl........... ................lhhq......zzzzzzzz",
"zzzzzzzz......whhl........................ehhhhhhe .fhhhhhhhhhhhhhhhhhhghhhghhhhhh1...........................ehhw......zzzzzzzz",
"zzzzzzzz......0hjl ......................$hhhjhhhi. ahhhhhhhhhhhhhhhhhhhhhhhhhhhhhh#..........................ehhw .....zzzzzzzz",
"zzzzzzzz......0hjy.......................ehhhhhhhh+ lhhhhhhhhhhhhhhhhhhhhhhhhhhhhhhiX.........................lhhq......zzzzzzzz",
"zzzzzzzz......8hhi......................#hhhhhhhhh*.9hhhhhhhhhhhhhhhshhhhhhhhhhhhhhh0........................ yhh0......zzzzzzzz",
"zzzzzzzz......6hha......................0hhhhhhhhhq.,hhhhhhhhhhhhhhk8hhhhhhhhhhhhhhhh<..............X.........phh7......zzzzzzzz",
"zzzzzzzz......1hhf.....................OfhhhhhhhhhhO@hhhhhhhhhhhhht.qhhhhhhhhhhhhhhhhg-.......................fhh2......zzzzzzzz",
"zzzzzzzzz.....&hhho....................1hhhhhhhhhhh4.phhhhhhhhhhhuX.whhhhhhhhhhhhhhhhhd+......................hhh*......zzzzzzzz",
"zzzzzzzzz.....%jhj$....................uhhhhhhhhhhhgo8hhhhhhhhhhao. ehhhhhhhhhhhhhhhhhhq.....................#hhj-.....zzzzzzzzz",
"zzzzzzzzz.....Oghh,......X............@hhhhhhhhhhhhhk=jhhhhhhhhg$ ..whhhhhhhhhhhhhhhhhhh:....................&hhho.....zzzzzzzzz",
"zzzzzzzzz..... dhh7...................2hhhhhhhhhhhhhh3yhhhhhhhh*....0hhhhhhhhhhhhjhhhhhhp....................3hhf......zzzzzzzzz",
"zzzzzzzzz......ehhy ..................uhhhhhhhhhhhhhhhehhhhhhh0.....5hhhhhhhhhhhhhhhhhhhj<...................ehhl......zzzzzzzzz",
"zzzzzzzzz......6hhf.....X.......X....+hhhhhhhhhhhhhhhhhhhhhhhpX.....2hhhhhhhhhhhhhhhhhhhhp...................dhh8......zzzzzzzzz",
"zzzzzzzzz......-hhj%.................>hhhhhhhhhhhhhhhhhhhhhhh;......>hhhhhhhhhhhhhhhhhhhhh-.................#hhh>......zzzzzzzzz",
"zzzzzzzzzz.....Oghh3.................5hhhhhhhhhhhhhhhhhhhhhjw... ...@hhhhhhhhhhhhhhhhhhhhh8.................1hhh+.....zzzzzzzzzz",
"zzzzzzzzzz..... lhhy ............... yhhhhhhhhhhhhhhhhhhhhhg#........fhhhhhhhhhhhhhhhhhhhhp.................lhhi......zzzzzzzzzz",
"zzzzzzzzzz......2jhho............... fhhhhhhhhhhhhhhhhhhhhh0.........khhhhhhhhhhhhhhhhhhhhg+...............Ofhh7......zzzzzzzzzz",
"zzzzzzzzzz......#hhh1...............+hhhhhhhhhhhhhhhhhhhhjh@.........2hhhhhhhhhhhhjhhhhhhhh=...............<hhh=......zzzzzzzzzz",
"zzzzzzzzzzz......ujhu ..............$hhhhhhhhhhhhhhhhhhhhhk .........#hhhhjhhhhhhhhhhhhhhhj*...............lhhp......zzzzzzzzzzz",
"zzzzzzzzzzz......2hhh$..............:hhhhhhhhhhhhhhhhhhhhh>...........phhhhhhhhhjhhhhhhhhhh<..............#hhh3......zzzzzzzzzzz",
"zzzzzzzzzzz......Ogjh0 .............*hhhhhhhhhhhh0ghhhhhhfX.........X.3hhhhhhhhhhhhhhhhhhhh<..............8hhho......zzzzzzzzzzz",
"zzzzzzzzzzzz......qjhh+.............<hhhhhhhhhhhp.fhhhhhhk...........XXhhhhhhhhhhhhhhhhhhhh,.............Oghhw......zzzzzzzzzzzz",
"zzzzzzzzzzzz......%jhh5 ............<hhhhhhhhhhh$.ihhhhhh2............ ehhhhhhhhhhjhhhhhhhj:.............3hhh-......zzzzzzzzzzzz",
"zzzzzzzzzzzz...... lhhg+............*hhhhhhhhhh7..ehhhhhh;.............-hhhhhhhhhhhhhhhhhhh#............Ofhhy.......zzzzzzzzzzzz",
"zzzzzzzzzzzzz......-hhh0............-hhhhhhhhhp...5hhhhhh@..............thhjhhhhhhhhhhhhhhfX...X........7hhh>......zzzzzzzzzzzzz",
"zzzzzzzzzzzzz...... lhhh$ ..........@hhhhhhhhh*...&hhhhhgX..............-hhhhhhhhhhhhhhhhhy............ohhhu.......zzzzzzzzzzzzz",
"zzzzzzzzzzzzzz......$hhht...........Xghhhhhhhy....+ghhhhf................qjjhhhhhjhhhhhhhh4............lhhh-......zzzzzzzzzzzzzz",
"zzzzzzzzzzzzzz...... 0hhh<.......... ihhhhhhh;.....yhhhhf................Xshjhhhhhhhhhhhhh$...........,hhhw.......zzzzzzzzzzzzzz",
"zzzzzzzzzzzzzzz......+fhhg@..........8hhhhhhy .....<hhhhgX................,jhhhhhhhhhhhhhu...........ofhhf+......zzzzzzzzzzzzzzz",
"zzzzzzzzzzzzzzz.......&hhhyX.........:hhhhhh*.......fhhhho.................ehhhhhhhhhhhhh<...........lhhh<.......zzzzzzzzzzzzzzz",
"zzzzzzzzzzzzzzzz.......qhhh9.. .....XXfhhhhf........<hhhh-.................+phhhhhhhhhhhdX..........7hhhe.......zzzzzzzzzzzzzzzz",
"zzzzzzzzzzzzzzzz.......Xahhh<.........qhhhh0.... ....lhhh2..................$hhhhhhhhjhh3..........>hhhfo.......zzzzzzzzzzzzzzzz",
"zzzzzzzzzzzzzzzzz.......=hhhh=........-hhhh>. .......+ihhl..........X....... <jhhhhhhhhd..........$ghhh-.......zzzzzzzzzzzzzzzzz",
"zzzzzzzzzzzzzzzzzz..X....<hhhf#.X......yhhh+..........+ehg+.................. lhhhhhhhh,.........#fhhh2.......zzzzzzzzzzzzzzzzzz",
"zzzzzzzzzzzzzzzzzz........5jhhf#.......>hhp.............;e2...................$hhhhhhhy.........oahhh0........zzzzzzzzzzzzzzzzzz",
"zzzzzzzzzzzzzzzzzzz........whhgf#.......lhl....................................yhhhhhg#........@dhhhl........zzzzzzzzzzzzzzzzzzz",
"zzzzzzzzzzzzzzzzzzzz.......Xehhhf%......#gw ...................................1hhhhh1........$dhhhl........zzzzzzzzzzzzzzzzzzzz",
"zzzzzzzzzzzzzzzzzzzzz.......Xkhhhg>......18....................................$hhhhw........:fhhhlO.......zzzzzzzzzzzzzzzzzzzzz",
"zzzzzzzzzzzzzzzzzzzzzz........wjhhh7......:....................................Oghhp........3hhhhlO........zzzzzzzzzzzzzzzzzzzzz",
"zzzzzzzzzzzzzzzzzzzzzz.........9hhhhl+.........................................Xfhf#......Olhhhh0.........zzzzzzzzzzzzzzzzzzzzzz",
"zzzzzzzzzzzzzzzzzzzzzzz.........2hhhhf>........................................Xgg-......:dhhhh3.........zzzzzzzzzzzzzzzzzzzzzzz",
"zzzzzzzzzzzzzzzzzzzzzzzz.........;dhhhhw@......................................oh*.....+whhhhf:.........zzzzzzzzzzzzzzzzzzzzzzzz",
"zzzzzzzzzzzzzzzzzzzzzzzzz.........+lhhhhg3X....................................:<.....3fhhhhyo.........zzzzzzzzzzzzzzzzzzzzzzzzz",
"zzzzzzzzzzzzzzzzzzzzzzzzzz..........1hhhhhd<X..................................O....,ahhhhg3..........zzzzzzzzzzzzzzzzzzzzzzzzzz",
"zzzzzzzzzzzzzzzzzzzzzzzzzzz..........+khhhhhd3+..................................+2ahhhhhl$..........zzzzzzzzzzzzzzzzzzzzzzzzzzz",
"zzzzzzzzzzzzzzzzzzzzzzzzzzzzz..........:ihhhhhfw;..............................;wfhhhhhp>..........zzzzzzzzzzzzzzzzzzzzzzzzzzzzz",
"zzzzzzzzzzzzzzzzzzzzzzzzzzzzzz...........,phhhhhhfw>O......................X>0fhhhhhja<...........zzzzzzzzzzzzzzzzzzzzzzzzzzzzzz",
"zzzzzzzzzzzzzzzzzzzzzzzzzzzzzzz............&yhhhhhhhhi9,$+............O%,9uhhhhhhhhu<............zzzzzzzzzzzzzzzzzzzzzzzzzzzzzzz",
"zzzzzzzzzzzzzzzzzzzzzzzzzzzzzzzzz............$wfhghhhhhhhhailw0990wlidhhhhhhhhhhf0-............zzzzzzzzzzzzzzzzzzzzzzzzzzzzzzzzz",
"zzzzzzzzzzzzzzzzzzzzzzzzzzzzzzzzzz..............>wahhhhhhhhhhhhhhhhhhhhhhhhhhdw>X.............zzzzzzzzzzzzzzzzzzzzzzzzzzzzzzzzzz",
"zzzzzzzzzzzzzzzzzzzzzzzzzzzzzzzzzzzz...............$2wahhhhhhhhhhhhhhhhjhde2$...............zzzzzzzzzzzzzzzzzzzzzzzzzzzzzzzzzzzz",
"zzzzzzzzzzzzzzzzzzzzzzzzzzzzzzzzzzzzzz.................O-,70eluiuyle07,-+.................zzzzzzzzzzzzzzzzzzzzzzzzzzzzzzzzzzzzzz",
"zzzzzzzzzzzzzzzzzzzzzzzzzzzzzzzzzzzzzzz..................................................zzzzzzzzzzzzzzzzzzzzzzzzzzzzzzzzzzzzzzz",
"zzzzzzzzzzzzzzzzzzzzzzzzzzzzzzzzzzzzzzzzzz............................................zzzzzzzzzzzzzzzzzzzzzzzzzzzzzzzzzzzzzzzzzz",
"zzzzzzzzzzzzzzzzzzzzzzzzzzzzzzzzzzzzzzzzzzzz........................................zzzzzzzzzzzzzzzzzzzzzzzzzzzzzzzzzzzzzzzzzzzz",
"zzzzzzzzzzzzzzzzzzzzzzzzzzzzzzzzzzzzzzzzzzzzzzz..................................zzzzzzzzzzzzzzzzzzzzzzzzzzzzzzzzzzzzzzzzzzzzzzz",
"zzzzzzzzzzzzzzzzzzzzzzzzzzzzzzzzzzzzzzzzzzzzzzzzzzz..........................zzzzzzzzzzzzzzzzzzzzzzzzzzzzzzzzzzzzzzzzzzzzzzzzzzz",
"zzzzzzzzzzzzzzzzzzzzzzzzzzzzzzzzzzzzzzzzzzzzzzzzzzzzzzzzz..............zzzzzzzzzzzzzzzzzzzzzzzzzzzzzzzzzzzzzzzzzzzzzzzzzzzzzzzzz",
"zzzzzzzzzzzzzzzzzzzzzzzzzzzzzzzzzzzzzzzzzzzzzzzzzzzzzzzzzzzzzzzzzzzzzzzzzzzzzzzzzzzzzzzzzzzzzzzzzzzzzzzzzzzzzzzzzzzzzzzzzzzzzzzz",
"zzzzzzzzzzzzzzzzzzzzzzzzzzzzzzzzzzzzzzzzzzzzzzzzzzzzzzzzzzzzzzzzzzzzzzzzzzzzzzzzzzzzzzzzzzzzzzzzzzzzzzzzzzzzzzzzzzzzzzzzzzzzzzzz",
"zzzzzzzzzzzzzzzzzzzzzzzzzzzzzzzzzzzzzzzzzzzzzzzzzzzzzzzzzzzzzzzzzzzzzzzzzzzzzzzzzzzzzzzzzzzzzzzzzzzzzzzzzzzzzzzzzzzzzzzzzzzzzzzz",
"zzzzzzzzzzzzzzzzzzzzzzzzzzzzzzzzzzzzzzzzzzzzzzzzzzzzzzzzzzzzzzzzzzzzzzzzzzzzzzzzzzzzzzzzzzzzzzzzzzzzzzzzzzzzzzzzzzzzzzzzzzzzzzzz",
"zzzzzzzzzzzzzzzzzzzzzzzzzzzzzzzzzzzzzzzzzzzzzzzzzzzzzzzzzzzzzzzzzzzzzzzzzzzzzzzzzzzzzzzzzzzzzzzzzzzzzzzzzzzzzzzzzzzzzzzzzzzzzzzz",
"zzzzzzzzzzzzzzzzzzzzzzzzzzzzzzzzzzzzzzzzzzzzzzzzzzzzzzzzzzzzzzzzzzzzzzzzzzzzzzzzzzzzzzzzzzzzzzzzzzzzzzzzzzzzzzzzzzzzzzzzzzzzzzzz",
"zzzzzzzzzzzzzzzzzzzzzzzzzzzzzzzzzzzzzzzzzzzzzzzzzzzzzzzzzzzzzzzzzzzzzzzzzzzzzzzzzzzzzzzzzzzzzzzzzzzzzzzzzzzzzzzzzzzzzzzzzzzzzzzz",
"zzzzzzzzzzzzzzzzzzzzzzzzzzzzzzzzzzzzzzzzzzzzzzzzzzzzzzzzzzzzzzzzzzzzzzzzzzzzzzzzzzzzzzzzzzzzzzzzzzzzzzzzzzzzzzzzzzzzzzzzzzzzzzzz"
};
