/* XPM */
static char *_222b09d712848b2e5ad492eab551b8a[] = {
/* columns rows colors chars-per-pixel */
"16 16 77 1 ",
"  c gray23",
". c #3C3C3A",
"X c #3D3D3A",
"o c #3C3C3B",
"O c #3D3D3B",
"+ c #3F3D3A",
"@ c #3F3E3A",
"# c #423F39",
"$ c #4C4537",
"% c #434138",
"& c #434039",
"* c #454039",
"= c #444139",
"- c #454238",
"; c #464239",
": c #484338",
"> c #4B4438",
", c #514836",
"< c #564B35",
"1 c #544936",
"2 c #584C35",
"3 c #594C35",
"4 c #5A4C34",
"5 c #5A4D35",
"6 c #5B4D35",
"7 c #5C4E34",
"8 c #5E4F34",
"9 c #5F4F34",
"0 c #5F5034",
"q c #7A5F2E",
"w c #7B5F2E",
"e c #625133",
"r c #635133",
"t c #635233",
"y c #665332",
"u c #675432",
"i c #605034",
"p c #6B5631",
"a c #685532",
"s c #695532",
"d c #705930",
"f c #725A30",
"g c #735B30",
"h c #745B30",
"j c #7F612D",
"k c #7F622D",
"l c #7C602E",
"z c #7D602E",
"x c #80622D",
"c c #84642C",
"v c #85652C",
"b c #86652C",
"n c #88662B",
"m c #8A672B",
"M c #916C29",
"N c #926C29",
"B c #936D29",
"V c #916C2A",
"C c #966E29",
"Z c #9C7227",
"A c #9E7327",
"S c #AD7B24",
"D c #B27E23",
"F c #BC8421",
"G c #CB8C1E",
"H c #D1901D",
"J c #D5921C",
"K c #ED9F17",
"L c #E99D18",
"P c #EA9D18",
"I c #EC9E18",
"U c #F1A117",
"Y c #F3A216",
"T c #F4A316",
"R c #F6A416",
"E c #C18620",
"W c None",
/* pixels */
"WWWWWWWWWWWWWWWW",
"WWWWWo>uu>oWWWWW",
"WWWW8VxiixV8WWWW",
"WWWgloooSoozhWWW",
"WW6zoooVUoooz8WW",
"W Vooo>KR8oooVoW",
"W=coooCRRZoooc=W",
"W8sooVFRRP$oou0W",
"W8so#PGRHREoos8W",
"W&cofRUDcRRfoc=W",
"W VonKJy,TRcoVoW",
"WW6xpZm4oZT<z6WW",
"WWWgx<ooo=ZzfWWW",
"WWWW6VcyycB6WWWW",
"WWWWWo=yi=oWWWWW",
"WWWWWWWWWWWWWWWW"
};
