/* XPM */
static char *aff4cdfdf15e41c4ee6baf1d827955e2[] = {
/* columns rows colors chars-per-pixel */
"64 64 42 1 ",
"  c #3C3C3B",
". c #413F3A",
"X c #4D4637",
"o c #444139",
"O c #494338",
"+ c #504737",
"@ c #544936",
"# c #5C4E34",
"$ c #755C2F",
"% c #795E2E",
"& c #635233",
"* c #695532",
"= c #6E5831",
"- c #715A30",
"; c #7D602E",
": c #82632C",
"> c #89672B",
", c #8C692A",
"< c #946D29",
"1 c #986F28",
"2 c #9D7227",
"3 c #9A7128",
"4 c #A37626",
"5 c #A77825",
"6 c #AC7B24",
"7 c #B27E23",
"8 c #B68022",
"9 c #BB8321",
"0 c #C5891F",
"q c #CC8D1E",
"w c #D18F1D",
"e c #D4911C",
"r c #DC951B",
"t c #DF981A",
"y c #ED9F17",
"u c #E39A19",
"i c #E99D18",
"p c #EFA017",
"a c #F6A416",
"s c #C18720",
"d c #C38820",
"f c None",
/* pixels */
"ffffffffffffffffffffffffffffffffffffffffffffffffffffffffffffffff",
"ffffffffffffffffffffffffffffffffffffffffffffffffffffffffffffffff",
"ffffffffffffffffffffffffffffffffffffffffffffffffffffffffffffffff",
"ffffffffffffffffffffffffffffffffffffffffffffffffffffffffffffffff",
"ffffffffffffffffffffffffff            ffffffffffffffffffffffffff",
"ffffffffffffffffffffff                    ffffffffffffffffffffff",
"ffffffffffffffffffff                        ffffffffffffffffffff",
"ffffffffffffffffff       #>8dupaapuq8>#       ffffffffffffffffff",
"ffffffffffffffff      +3raaaied89dwiaaat3@      ffffffffffffffff",
"fffffffffffffff     #9aau6%+        +$6uaa9&     fffffffffffffff",
"ffffffffffffff    O8aad-                =daa8X    ffffffffffffff",
"fffffffffffff    $iad&             -      #dau;    fffffffffffff",
"ffffffffffff    4ai;              ,q        ;ua5    ffffffffffff",
"fffffffffff   .9aw+              ;a9         +qad.   fffffffffff",
"ffffffffff   .sa9.              *pa9          .8ad.   ffffffffff",
"fffffffff    8a7               @iaa9            6a9    fffffffff",
"fffffffff   3a9                eaaaq             9a3   fffffffff",
"ffffffff   *aeo               4aaaar             oea*   ffffffff",
"fffffff   orp#               &aaaaap              @puo   fffffff",
"fffffff   3a,                eaaaaaa@              >a4   fffffff",
"ffffff   Xpr                >aaaaaaa%               ea+   ffffff",
"ffffff   4a$                taaaaaaa4               -a4   ffffff",
"ffffff  .ir                %aaaaaaaae                epo  ffffff",
"fffff   ;a>                daaaaaaaaa+               >a:   fffff",
"fffff   9aO               Oaaaaaaaaaa1               Ops   fffff",
"fffff   pq              o&;aaaaaaaaaar                dp.  fffff",
"fffff  &a3              4@8aaaaaaaaaaa=               <a*  fffff",
"ffff   >a=             -i waaaaaaaaaaa0               =a,   ffff",
"ffff   5a+            oue yaaaaaaaaaaaa*              Oa6   ffff",
"ffff   9a             4ad aaaaaaaaaaaaaq               p9   ffff",
"ffff   qu            #aadoaaaaaaaaaaaaaa:              uw   ffff",
"ffff   wu            daae aaaaaaaaaaaaaaiX             re   ffff",
"ffff   wu           *aaap uaaaaaaaaaaaaaa0             re   ffff",
"ffff   qi           9aaaa*daaaaaayuaaaaaaa3            uq   ffff",
"ffff   8a          +aaaaa71aaaaay#eaaaaaaaa-           ps   ffff",
"ffff   4a+         <aaaaaa>aaaaa- eaaaaaaaaiO         +a5   ffff",
"ffff   >a$         waaaaaaruaaa<  qaaaaaaaaa5         -a>   ffff",
"fffff  #a4        Xaaaaaaaaaaaw   9aaaaaaaaayo        3a&  fffff",
"fffff   iw        $aaaaaaaaaaa#   2aaaaaaaaaa%        wp   fffff",
"fffff   7a+       1aaaaaaaaaa8    %aaaaaaaaaa5       Xa8   fffff",
"fffff   $a1       6aaaaaaaaaa*    opaaaaaaaaa9       <a%   fffff",
"ffffff  .uu       9aaaaa6paau.     8aaaaaaaaas       ui   ffffff",
"ffffff   <a:      7aaaau.uaa9      &aaaaaaaaa6      ;a3   ffffff",
"ffffff   oiu.     6aaaa$ daa4       0aaaaaaaa,     .ryO   ffffff",
"fffffff   ,a2     ,aaaq  <aa<       #aaaaaaaa#     2a<   fffffff",
"fffffff    ea&    &aaa*  Xpa2        1aaaaaae     &ae    fffffff",
"ffffffff   #puX   .uat.   2a8         qaaaaa;    ora&   ffffffff",
"fffffffff   >aw.   3a5     7i.        Oiaaar    .qa>   fffffffff",
"fffffffff    4ad.  oi>      &+         1aaa&   .da5    fffffffff",
"ffffffffff    6awO  >=                 @aa3   O0a7    ffffffffff",
"fffffffffff    4ar&  O                  ad   &ra5    fffffffffff",
"ffffffffffff    >pa1                   .wo  <aa,    ffffffffffff",
"fffffffffffff    &ear$                 OX $rar&    fffffffffffff",
"ffffffffffffff    .3par>o              O>eap3o    ffffffffffffff",
"fffffffffffffff     O4iaa0<&o      O&,daay4X     fffffffffffffff",
"fffffffffffffffff     O:dpaaairwqriaaaad>o     fffffffffffffffff",
"ffffffffffffffffff       .=<7qruurq7<=O       ffffffffffffffffff",
"ffffffffffffffffffff                        ffffffffffffffffffff",
"fffffffffffffffffffffff                  fffffffffffffffffffffff",
"fffffffffffffffffffffffffff          fffffffffffffffffffffffffff",
"ffffffffffffffffffffffffffffffffffffffffffffffffffffffffffffffff",
"ffffffffffffffffffffffffffffffffffffffffffffffffffffffffffffffff",
"ffffffffffffffffffffffffffffffffffffffffffffffffffffffffffffffff",
"ffffffffffffffffffffffffffffffffffffffffffffffffffffffffffffffff"
};
