/* XPM */
static char *a1882816e470443ab9bf0aa50f012ac3[] = {
/* columns rows colors chars-per-pixel */
"32 32 163 2 ",
"   c gray23",
".  c #3B3C3B",
"X  c #3C3C3A",
"o  c #3D3C3A",
"O  c #3D3D3A",
"+  c #3C3C3B",
"@  c #3D3C3B",
"#  c #3E3D3A",
"$  c #3F3D3A",
"%  c #3F3E3A",
"&  c #423F39",
"*  c #403E3A",
"=  c #413F3A",
"-  c #4C4537",
";  c #434039",
":  c #444039",
">  c #454139",
",  c #464139",
"<  c #474238",
"1  c #474239",
"2  c #484338",
"3  c #494338",
"4  c #4A4438",
"5  c #4B4438",
"6  c #4B4538",
"7  c #534936",
"8  c #554A35",
"9  c #564A35",
"0  c #564B35",
"q  c #574B35",
"w  c #544936",
"e  c #554A36",
"r  c #5E4F33",
"t  c #584C35",
"y  c #594C35",
"u  c #5B4D34",
"i  c #5A4D35",
"p  c #5B4E34",
"a  c #5C4E34",
"s  c #5D4E34",
"d  c #5E4F34",
"f  c #5F5034",
"g  c #735B2F",
"h  c #755C2F",
"j  c #765D2F",
"k  c #775D2F",
"l  c #785D2F",
"z  c #785E2F",
"x  c #7A5E2E",
"c  c #7A5F2E",
"v  c #7B5F2E",
"b  c #635233",
"n  c #655232",
"m  c #655332",
"M  c #645233",
"N  c #665332",
"B  c #6A5531",
"V  c #6B5631",
"C  c #695532",
"Z  c #6C5731",
"A  c #6D5731",
"S  c #7D602D",
"D  c #7E612D",
"F  c #7C602E",
"G  c #7D602E",
"H  c #7E612E",
"J  c #86652B",
"K  c #87662B",
"L  c #82632D",
"P  c #83642C",
"I  c #84642C",
"U  c #84652C",
"Y  c #85652C",
"T  c #86652C",
"R  c #86662C",
"E  c #88662B",
"W  c #89672B",
"Q  c #8A672B",
"!  c #88662C",
"~  c #8B682B",
"^  c #8D692A",
"/  c #8C692B",
"(  c #8D692B",
")  c #8E6A2A",
"_  c #8F6A2A",
"`  c #946D29",
"'  c #976F28",
"]  c #986F28",
"[  c #9C7127",
"{  c #9D7227",
"}  c #9E7327",
"|  c #9F7327",
" . c #987028",
".. c #997028",
"X. c #A07426",
"o. c #A17526",
"O. c #A27526",
"+. c #A37626",
"@. c #A57725",
"#. c #A57726",
"$. c #A77825",
"%. c #A87825",
"&. c #AA7924",
"*. c #AA7925",
"=. c #AB7A24",
"-. c #AB7A25",
";. c #AD7B24",
":. c #AE7B24",
">. c #AF7C24",
",. c #B07D23",
"<. c #B37F23",
"1. c #B68022",
"2. c #B78122",
"3. c #BB8321",
"4. c #B88122",
"5. c #B98222",
"6. c #BD8421",
"7. c #BF8520",
"8. c #BE8521",
"9. c #C88A1E",
"0. c #C98B1F",
"q. c #CE8E1D",
"w. c #CF8E1D",
"e. c #CC8C1E",
"r. c #CD8D1E",
"t. c #D08F1D",
"y. c #D18F1D",
"u. c #D3901C",
"i. c #D3911C",
"p. c #D2901D",
"a. c #D4911C",
"s. c #D5911C",
"d. c #D6921C",
"f. c #D7921C",
"g. c #D7931C",
"h. c #D8931B",
"j. c #D9941B",
"k. c #DA941B",
"l. c #DA951B",
"z. c #DB951B",
"x. c #DD961A",
"c. c #D8931C",
"v. c #ED9F17",
"b. c #E39919",
"n. c #E49A19",
"m. c #E59A19",
"M. c #E79B18",
"N. c #E69B19",
"B. c #E99D18",
"V. c #EA9D18",
"C. c #F0A117",
"Z. c #F2A216",
"A. c #F3A216",
"S. c #F4A316",
"D. c #F5A316",
"F. c #F5A416",
"G. c #F6A416",
"H. c #C08620",
"J. c #C18720",
"K. c #C28720",
"L. c #C38820",
"P. c #C58820",
"I. c None",
/* pixels */
"I.I.I.I.I.I.I.I.I.I.I.I.I.I.I.I.I.I.I.I.I.I.I.I.I.I.I.I.I.I.I.I.",
"I.I.I.I.I.I.I.I.I.I.I.I.I.I.I.I.I.I.I.I.I.I.I.I.I.I.I.I.I.I.I.I.",
"I.I.I.I.I.I.I.I.I.I.I.I.+ + + + + + + . I.I.I.I.I.I.I.I.I.I.I.I.",
"I.I.I.I.I.I.I.I.I.I.+ + ; V E ....E A ; + +   I.I.I.I.I.I.I.I.I.",
"I.I.I.I.I.I.I.I.+ + M 1.j.;./ F F ) ;.l.1.m + + I.I.I.I.I.I.I.I.",
"I.I.I.I.I.I.I.+ 5 1.P.V + + + + . 3 + + V J.5.3 + I.I.I.I.I.I.I.",
"I.I.I.I.I.I.+ s g.F + + + + + + 5 J.+ + . + F g.s + I.I.I.I.I.I.",
"I.I.I.I.I.+ p g.s + + + + + . ; e.l.+ + + + . p j.s + I.I.I.I.I.",
"I.I.I.I.+ 1 g.s + + + + + + + %.G.n.. + + + + + s g.5 . I.I.I.I.",
"I.I.I.I.  ;.U + + + + + + + V G.G.S.& + + + + +   L ;.+ I.I.I.I.",
"I.I.I.+ p e.+ + + + + + + + p.G.G.G.n + + + + + . + e.s + I.I.I.",
"I.I.I.+ %.z + + + + + + + A G.G.G.G.' + +     @ + + h %.+ I.I.I.",
"I.I.    j.+ + + + + + + 1 ;.G.G.G.G.h.  + + + +     * l.+ + I.I.",
"I.I.  p 8.+ + + + + + 3 E z.G.G.G.G.G.B + + + + + @ @ 5.s   I.I.",
"I.I.+ j | + + + + + + ,.U D.D.G.G.G.G.9.+ + + + + + . [ z + I.I.",
"I.I.+ U ) + + + + + M G.U D.G.G.G.G.G.G.F + + + +     ) J + I.I.",
"I.I.@ P _ + + + @ @ L.G.o.n.G.G.Z.C.G.G.B.7 . + + + @ W J + I.I.",
"I.I.  h o.+ + +   t D.G.n.K.G.G.S M.G.S.G.t.+ + + + @ } z + I.I.",
"I.I.+ q K.  + + + ` G.G.G.B.G.@.+ z.G.G.G.G.J + + + + 8.q   I.I.",
"I.I.    l.* + + + 8.G.G.G.G.n.1 + 8.G.G.G.G.L.+ + + * z.+ @ I.I.",
"I.I.I.+ o.v + + + u.D.G.n.G.o.+ + W G.G.G.G.l.+ + + z @.+ I.I.I.",
"I.I.I.+ q y.+ + + h.G.e.J G.g   . < B.G.G.G.9.+ + + p.q + I.I.I.",
"I.I.I.I.  @.) + + 5.G.A q Z.V + . + W G.G.G.' + + W @.+ I.I.I.I.",
"I.I.I.I.@ * h.m + F z.+   o.J + + + + 8.G.v.- + b g.1 + I.I.I.I.",
"I.I.I.I.I.+ q g.n + ..+ + + - + + +   p D.)   b c.q + I.I.I.I.I.",
"I.I.I.I.I.I.  q h.E * + + + + + + +   + <.+ J g.q   I.I.I.I.I.I.",
"I.I.I.I.I.I.I.+ 1 %.e.z + + + + + + + 1 z e.%.3 + I.I.I.I.I.I.I.",
"I.I.I.I.I.I.I.I.+ + p %.z.5...E ! ] 5.z.%.s + + I.I.I.I.I.I.I.I.",
"I.I.I.I.I.I.I.I.I.I.+ + + b F / ) F b + +   I.I.I.I.I.I.I.I.I.I.",
"I.I.I.I.I.I.I.I.I.I.I.I.  + + +   + + + I.I.I.I.I.I.I.I.I.I.I.I.",
"I.I.I.I.I.I.I.I.I.I.I.I.I.I.I.I.I.I.I.I.I.I.I.I.I.I.I.I.I.I.I.I.",
"I.I.I.I.I.I.I.I.I.I.I.I.I.I.I.I.I.I.I.I.I.I.I.I.I.I.I.I.I.I.I.I."
};
