<?xml version="1.0" encoding="utf-8"?>
<!-- Generator: Adobe Illustrator 23.0.3, SVG Export Plug-In . SVG Version: 6.00 Build 0)  -->
<svg version="1.1"
	 id="Ebene_1" xmlns:cc="http://creativecommons.org/ns#" xmlns:dc="http://purl.org/dc/elements/1.1/" xmlns:rdf="http://www.w3.org/1999/02/22-rdf-syntax-ns#" xmlns:svg="http://www.w3.org/2000/svg"
	 xmlns="http://www.w3.org/2000/svg" xmlns:xlink="http://www.w3.org/1999/xlink" x="0px" y="0px" viewBox="0 0 841.9 841.9"
	 style="enable-background:new 0 0 841.9 841.9;" xml:space="preserve">
<style type="text/css">
	.st0{fill:#F6A416;}
</style>
<g id="g3">
	<path id="path5" class="st0" d="M297.6,677.3c-68.5,0-132.9-26.7-181.3-75.1s-75-112.8-75-181.3S68,288,116.4,239.6
		s112.8-75.1,181.3-75.1s132.9,26.7,181.3,75.1s75.1,112.8,75.1,181.3S527.4,553.8,479,602.2S366.1,677.3,297.6,677.3z M297.6,204.6
		c-57.8,0-112.1,22.5-153,63.4s-63.4,95.2-63.4,153s22.5,112.1,63.4,153s95.2,63.4,153,63.4s112.1-22.5,153-63.4S514,478.8,514,421
		s-22.5-112.1-63.4-153C409.8,227.1,355.4,204.6,297.6,204.6z"/>
</g>
<path id="polygon7" class="st0" d="M297.6,184.6l-167.5,55.7L61.3,420.9L117,588.5l180.6,68.8l167.6-55.7L534,420.9l-55.7-167.5
	L297.6,184.6z M293.5,253.4c14.9,0,24.8,9.9,24.8,24.8V403h74.8c14.9,0,24.8,9.9,24.8,24.8c0,14.9-9.9,24.8-24.8,24.8h-99.6
	c-14.8,0-24.8-12.4-24.8-24.8V278.2C268.7,263.3,278.6,253.4,293.5,253.4z"/>
</svg>
