<?xml version="1.0" encoding="utf-8"?>
<!-- Generator: Adobe Illustrator 23.0.3, SVG Export Plug-In . SVG Version: 6.00 Build 0)  -->
<svg version="1.1"
	 id="svg2" xmlns:cc="http://creativecommons.org/ns#" xmlns:dc="http://purl.org/dc/elements/1.1/" xmlns:rdf="http://www.w3.org/1999/02/22-rdf-syntax-ns#" xmlns:svg="http://www.w3.org/2000/svg"
	 xmlns="http://www.w3.org/2000/svg" xmlns:xlink="http://www.w3.org/1999/xlink" x="0px" y="0px" viewBox="0 0 92 92"
	 style="enable-background:new 0 0 92 92;" xml:space="preserve">
<style type="text/css">
	.st0{fill:#F6A416;}
</style>
<g id="g4142" transform="matrix(0,-1,-1,0,23.96,24)">
	<g id="g4210" transform="matrix(-1,0,0,1,59.86,-106.6)">
		<g id="g4289" transform="matrix(-1,0,0,1,-16.98,0.8136)">
			<g id="g4291">
				<path id="path4153" class="st0" d="M-98.9,77.8c-1.3,0-2.3,1-2.3,2.3v7.7c0,1.3,1,2.3,2.3,2.3c1.8,0,3.5,1.5,3.5,3.5v9.2
					c-4.5,2.3-7.7,6.9-7.7,12.3c0,7.7,6.3,13.8,13.8,13.8c7.6,0,13.8-6.1,13.8-13.8c0-5.4-3.2-10-7.7-12.3v-9.2
					C-83.2,84.7-90.3,77.8-98.9,77.8L-98.9,77.8z"/>
				<g id="g4295">
					<path id="path4149" class="st0" d="M-108.5,38.7c-7.7,0-13.8,6.5-13.8,13.8c0,5.4,3.2,10,7.7,12.3v9.6
						c0,8.4,7.1,15.7,15.7,15.7c1.3,0,2.3-1,2.3-2.3v-7.7c0-1.3-1-2.3-2.3-2.3c-1.9,0-3.5-1.5-3.5-3.5v-9.6
						c4.5-2.3,7.7-6.9,7.7-12.3C-94.7,45.2-100.8,38.7-108.5,38.7z"/>
					<path id="path4147" class="st0" d="M-70.1,38.7c-7.6,0-13.8,6.5-13.8,13.8c0,5.4,3.2,10,7.7,12.3v9.6c0,1.9-1.6,3.5-3.5,3.5
						h-16.7c-1.3,0-2.3,1-2.3,2.3v7.7c0,1.3,1,2.3,2.3,2.3h16.7c8.7,0,15.7-7.3,15.7-15.7v-9.6c4.5-2.3,7.7-6.9,7.7-12.3
						C-56.3,45.2-62.5,38.7-70.1,38.7z"/>
				</g>
				<path id="path4155" class="st0" d="M-118,77.8c-8.6,0-15.7,6.9-15.7,15.7v9.6c-4.5,1.9-7.6,6.5-7.6,11.9
					c0,7.7,6.3,13.8,13.8,13.8c7.5,0,13.8-6.1,13.8-13.8c0-5.4-3.2-10-7.7-12.3v-9.2c0-1.9,1.6-3.5,3.5-3.5h17.3
					c1.3,0,2.3-1,2.3-2.3v-7.7c0-1.3-1-2.3-2.3-2.3L-118,77.8L-118,77.8z"/>
			</g>
		</g>
	</g>
</g>
<path id="path4170" class="st0" d="M58.3,46c0-3.2-1.5-6.3-3.8-8.6c-1.9-2.5-5-3.7-8.4-3.7c-3.5,0-6.5,1.2-8.4,3.7
	c-2.3,2.3-3.8,5.4-3.8,8.6s1.5,6.3,3.8,8.6c1.9,2.5,5,3.7,8.4,3.7c3.4,0,6.5-1.2,8.4-3.7C56.7,52.3,58.3,49.2,58.3,46z"/>
</svg>
