<?xml version="1.0" encoding="utf-8"?>
<!-- Generator: Adobe Illustrator 23.0.3, SVG Export Plug-In . SVG Version: 6.00 Build 0)  -->
<svg version="1.1"
	 id="svg2" xmlns:cc="http://creativecommons.org/ns#" xmlns:dc="http://purl.org/dc/elements/1.1/" xmlns:rdf="http://www.w3.org/1999/02/22-rdf-syntax-ns#" xmlns:svg="http://www.w3.org/2000/svg"
	 xmlns="http://www.w3.org/2000/svg" xmlns:xlink="http://www.w3.org/1999/xlink" x="0px" y="0px" viewBox="0 0 92 92"
	 style="enable-background:new 0 0 92 92;" xml:space="preserve">
<style type="text/css">
	.st0{fill:#F6A416;}
</style>
<g id="g4210" transform="matrix(0,1,-1,0,130.6,-35.86)">
	<g id="g4289" transform="matrix(-1,0,0,1,-16.98,0.8136)">
		<g id="g4291">
			<path id="path4293" class="st0" d="M-100.8,78.1v11.5h1.9c2.1,0,3.8,1.9,3.8,3.8v10c-4.4,1.9-7.7,6.1-7.7,11.5
				c0,7.7,6.1,13.4,13.4,13.4c7.3,0,13.4-5.8,13.4-13.4c0-5.4-3.3-9.6-7.7-11.5v-10c0-8.8-6.9-15.3-15.3-15.3L-100.8,78.1z
				 M-97,82.7c5.3,1.2,9.6,5,9.6,10.7v12.3l1.3,0.4c3.7,1.2,6.4,4.6,6.4,8.8c0,5.4-4.3,9.6-9.6,9.6s-9.6-4.2-9.6-9.6
				c0-4.2,2.6-7.7,6.4-8.8l1.3-0.4V93.4c0-3.5-2.6-5.8-5.8-6.9V82.7z"/>
			<g id="g4295">
				<path id="path4297" class="st0" d="M-108.5,39c-7.4,0-13.4,6.1-13.4,13.4c0,5.4,3.3,9.6,7.7,11.5v10.3c0,8.4,6.9,15.3,15.3,15.3
					h1.9v-1.9v-9.6h-1.9c-2.1,0-3.8-1.9-3.8-3.8V63.9c4.4-1.9,7.7-6.1,7.7-11.5C-95,45.1-101.1,39-108.5,39z M-108.5,42.8
					c5.3,0,9.6,4.6,9.6,9.6c0,4.2-2.7,7.7-6.4,8.8l-1.3,0.4v12.7c0,3.5,2.6,5.8,5.8,6.9V85c-5.3-1.2-9.6-5.4-9.6-10.7V61.6l-1.3-0.4
					c-3.7-1.2-6.4-4.6-6.4-8.8C-118,47.4-113.8,42.8-108.5,42.8z"/>
				<path id="path4142" class="st0" d="M-70.1,38.6c-7.6,0-13.8,6.5-13.8,13.8c0,5.4,3.2,10,7.7,12.3v9.6c0,1.9-1.6,3.5-3.5,3.5
					h-16.7c-1.3,0-2.3,1-2.3,2.3v7.7c0,1.3,1,2.3,2.3,2.3h16.7C-71,90-64,82.7-64,74.3v-9.6c4.5-2.3,7.7-6.9,7.7-12.3
					C-56.3,45.1-62.5,38.6-70.1,38.6z"/>
			</g>
			<path id="path4148" class="st0" d="M-118,77.7c-8.6,0-15.7,6.9-15.7,15.7v9.6c-4.5,1.9-7.6,6.5-7.6,11.9
				c0,7.7,6.3,13.8,13.8,13.8c7.5,0,13.8-6.1,13.8-13.8c0-5.4-3.2-10-7.7-12.3v-9.2c0-1.9,1.6-3.5,3.5-3.5h17.3c1.3,0,2.3-1,2.3-2.3
				V80c0-1.3-1-2.3-2.3-2.3L-118,77.7L-118,77.7z"/>
		</g>
	</g>
	<path id="path4170" class="st0" d="M81.9,72.3c-3.2,0-6.3,1.5-8.6,3.8c-2.5,1.9-3.7,5-3.7,8.4c0,3.5,1.2,6.5,3.7,8.4
		c2.3,2.3,5.4,3.8,8.6,3.8s6.3-1.5,8.6-3.8c2.5-1.9,3.7-5,3.7-8.4c0-3.5-1.2-6.5-3.7-8.4C88.2,73.9,85.1,72.3,81.9,72.3z"/>
</g>
</svg>
