<?xml version="1.0" encoding="utf-8"?>
<!-- Generator: Adobe Illustrator 23.0.3, SVG Export Plug-In . SVG Version: 6.00 Build 0)  -->
<svg version="1.1"
	 id="svg2" xmlns:cc="http://creativecommons.org/ns#" xmlns:dc="http://purl.org/dc/elements/1.1/" xmlns:rdf="http://www.w3.org/1999/02/22-rdf-syntax-ns#" xmlns:svg="http://www.w3.org/2000/svg"
	 xmlns="http://www.w3.org/2000/svg" xmlns:xlink="http://www.w3.org/1999/xlink" x="0px" y="0px" viewBox="0 0 92 92"
	 style="enable-background:new 0 0 92 92;" xml:space="preserve">
<style type="text/css">
	.st0{fill:#F6A416;}
</style>
<g id="g4142" transform="matrix(0,-1,-1,0,23.96,24)">
	<g id="g4210" transform="matrix(-1,0,0,1,59.86,-106.6)">
		<g id="g4289" transform="matrix(-1,0,0,1,-16.98,0.8136)">
			<g id="g4291">
				<path id="path4293" class="st0" d="M-100.8,78.2v11.5h1.9c2.1,0,3.8,1.9,3.8,3.8v10c-4.4,1.9-7.7,6.1-7.7,11.5
					c0,7.7,6.1,13.4,13.4,13.4c7.3,0,13.4-5.8,13.4-13.4c0-5.4-3.3-9.6-7.7-11.5v-10c0-8.8-6.9-15.3-15.3-15.3L-100.8,78.2z
					 M-97,82.8c5.3,1.2,9.6,5,9.6,10.7v12.3l1.3,0.4c3.7,1.2,6.4,4.6,6.4,8.8c0,5.4-4.3,9.6-9.6,9.6s-9.6-4.2-9.6-9.6
					c0-4.2,2.6-7.7,6.4-8.8l1.3-0.4V93.5c0-3.5-2.6-5.8-5.8-6.9V82.8z"/>
				<g id="g4295">
					<path id="path4297" class="st0" d="M-108.5,39.1c-7.4,0-13.4,6.1-13.4,13.4c0,5.4,3.3,9.6,7.7,11.5v10.3
						c0,8.4,6.9,15.3,15.3,15.3h1.9v-1.9v-9.6h-1.9c-2.1,0-3.8-1.9-3.8-3.8V64c4.4-1.9,7.7-6.1,7.7-11.5
						C-95,45.2-101.1,39.1-108.5,39.1z M-108.5,42.9c5.3,0,9.6,4.6,9.6,9.6c0,4.2-2.7,7.7-6.4,8.8l-1.3,0.4v12.7
						c0,3.5,2.6,5.8,5.8,6.9v3.8c-5.3-1.2-9.6-5.4-9.6-10.7V61.7l-1.3-0.4c-3.7-1.2-6.4-4.6-6.4-8.8
						C-118,47.5-113.8,42.9-108.5,42.9z"/>
					<path id="path4299" class="st0" d="M-70.1,39.1c-7.4,0-13.4,6.1-13.4,13.4c0,5.4,3.3,9.6,7.7,11.5v10.3c0,1.9-1.7,3.8-3.8,3.8
						h-18.6l12.2,11.5h6.4c8.5,0,15.3-6.9,15.3-15.3V64c4.4-1.9,7.7-6.1,7.7-11.5C-56.7,45.2-62.7,39.1-70.1,39.1z M-70.1,42.9
						c5.3,0,9.6,4.6,9.6,9.6c0,4.2-2.7,7.7-6.4,8.8l-1.3,0.4v12.7c0,6.1-5.2,11.5-11.5,11.5h-6.9l-7.8-3.8h14.8
						c4.3,0,7.7-3.5,7.7-7.7V61.7l-1.3-0.4c-3.7-1.2-6.4-4.6-6.4-8.8C-79.7,47.5-75.4,42.9-70.1,42.9L-70.1,42.9z"/>
				</g>
				<path id="path4301" class="st0" d="M-118,78.2c-8.4,0-15.3,6.5-15.3,15.3v10c-4.4,2.3-7.6,6.1-7.6,11.5
					c0,7.7,6.1,13.4,13.5,13.4s13.4-5.8,13.4-13.4c0-5.4-3.3-9.6-7.7-11.5v-10c0-1.9,1.7-3.8,3.8-3.8h19.2l-12.9-11.5L-118,78.2z
					 M-118,82h7.1l8.4,3.8h-15.4c-4.3,0-7.7,3.5-7.7,7.7v12.3l1.3,0.4c3.7,1.2,6.4,4.6,6.4,8.8c0,5.4-4.3,9.6-9.6,9.6
					s-9.6-4.2-9.6-9.6c0-4.2,2.7-7.7,6.4-8.8l1.3-0.4v-1.5V93.5C-129.5,87-124.4,82-118,82L-118,82z"/>
			</g>
		</g>
	</g>
	<path id="path4165" class="st0" d="M-22-34.3c-3.2,0-6.4,1.3-8.6,3.6c-2.3,2.3-3.6,5.4-3.6,8.6c0,3.3,1.3,6.4,3.6,8.7l0,0
		c2.3,2.3,5.5,3.6,8.7,3.6s6.4-1.3,8.7-3.6c2.3-2.3,3.6-5.4,3.6-8.7c0-3.2-1.3-6.4-3.6-8.6C-15.6-33-18.8-34.3-22-34.3z"/>
</g>
</svg>
