<?xml version="1.0" encoding="utf-8"?>
<!-- Generator: Adobe Illustrator 23.0.3, SVG Export Plug-In . SVG Version: 6.00 Build 0)  -->
<svg version="1.1" id="Ebene_1" xmlns="http://www.w3.org/2000/svg" xmlns:xlink="http://www.w3.org/1999/xlink" x="0px" y="0px"
	 viewBox="0 0 595.3 841.9" style="enable-background:new 0 0 595.3 841.9;" xml:space="preserve">
<style type="text/css">
	.st0{fill:#F6A416;}
	.st1{fill:none;}
	.st2{fill:#FFFFFF;}
</style>
<g>
	<path class="st0" d="M81.3,336.5v66.8h70.4v-66.8H190v174h-38.3v-75.1H81.3v75.1H43v-174H81.3z"/>
	<path class="st0" d="M298.7,336.5c11.2,0,21.6,1.8,31.3,5.4c9.7,3.6,18,8.9,25.1,16.1s12.6,16.1,16.6,26.8c4,10.7,6,23.3,6,37.8
		c0,12.7-1.6,24.4-4.9,35.1s-8.2,20-14.7,27.8c-6.6,7.8-14.8,13.9-24.6,18.4c-9.8,4.5-21.4,6.7-34.7,6.7h-75.1v-174L298.7,336.5
		L298.7,336.5z M296,478.3c5.5,0,10.9-0.9,16.1-2.7c5.2-1.8,9.8-4.8,13.9-8.9s7.3-9.5,9.7-16.2c2.4-6.7,3.7-14.8,3.7-24.4
		c0-8.8-0.9-16.7-2.6-23.8s-4.5-13.1-8.4-18.2c-3.9-5-9.1-8.9-15.5-11.6s-14.3-4-23.8-4h-27.3v109.7H296V478.3z"/>
</g>
<g>
	<g>
		<line class="st1" x1="32" y1="555.9" x2="358" y2="293.9"/>
	</g>
	<g>
		<path class="st2" d="M32,580.9c-7.3,0-14.6-3.2-19.5-9.3c-8.6-10.8-6.9-26.5,3.8-35.1l326-262c10.8-8.6,26.5-6.9,35.1,3.8
			c8.6,10.8,6.9,26.5-3.8,35.1l-326,262C43,579.1,37.5,580.9,32,580.9z"/>
	</g>
	<g>
		<path class="st0" d="M32,573.9c-5.3,0-10.5-2.3-14-6.7c-6.2-7.7-5-19.1,2.8-25.3l326-262c7.8-6.2,19.1-5,25.3,2.8
			c6.2,7.7,5,19.1-2.8,25.3l-326,262C40,572.6,36,573.9,32,573.9z"/>
	</g>
</g>
</svg>
