<?xml version="1.0" encoding="utf-8"?>
<!-- Generator: Adobe Illustrator 23.0.3, SVG Export Plug-In . SVG Version: 6.00 Build 0)  -->
<svg version="1.1" id="Ebene_1" xmlns="http://www.w3.org/2000/svg" xmlns:xlink="http://www.w3.org/1999/xlink" x="0px" y="0px"
	 viewBox="0 0 595.3 841.9" style="enable-background:new 0 0 595.3 841.9;" xml:space="preserve">
<style type="text/css">
	.st0{fill:#F6A416;}
</style>
<g>
	<path class="st0" d="M81.3,336.5v66.8h70.4v-66.8H190v174h-38.3v-75.1H81.3v75.1H43v-174H81.3z"/>
	<path class="st0" d="M298.7,336.5c11.2,0,21.6,1.8,31.3,5.4c9.7,3.6,18,8.9,25.1,16.1s12.6,16.1,16.6,26.8c4,10.7,6,23.3,6,37.8
		c0,12.7-1.6,24.4-4.9,35.1s-8.2,20-14.7,27.8c-6.6,7.8-14.8,13.9-24.6,18.4c-9.8,4.5-21.4,6.7-34.7,6.7h-75.1v-174L298.7,336.5
		L298.7,336.5z M296,478.3c5.5,0,10.9-0.9,16.1-2.7c5.2-1.8,9.8-4.8,13.9-8.9s7.3-9.5,9.7-16.2c2.4-6.7,3.7-14.8,3.7-24.4
		c0-8.8-0.9-16.7-2.6-23.8s-4.5-13.1-8.4-18.2c-3.9-5-9.1-8.9-15.5-11.6s-14.3-4-23.8-4h-27.3v109.7H296V478.3z"/>
</g>
</svg>
