<?xml version="1.0" encoding="utf-8"?>
<!-- Generator: Adobe Illustrator 23.0.3, SVG Export Plug-In . SVG Version: 6.00 Build 0)  -->
<svg version="1.1"
	 id="svg2" xmlns:cc="http://creativecommons.org/ns#" xmlns:dc="http://purl.org/dc/elements/1.1/" xmlns:rdf="http://www.w3.org/1999/02/22-rdf-syntax-ns#" xmlns:svg="http://www.w3.org/2000/svg"
	 xmlns="http://www.w3.org/2000/svg" xmlns:xlink="http://www.w3.org/1999/xlink" x="0px" y="0px" viewBox="0 0 92 92"
	 style="enable-background:new 0 0 92 92;" xml:space="preserve">
<style type="text/css">
	.st0{fill:#F6A416;fill-opacity:0.5;}
	.st1{fill:#F6A416;stroke:#000000;stroke-width:3;stroke-linecap:round;}
</style>
<g id="g4142" transform="matrix(0,-1,-1,0,23.96,24)">
	<g id="g4210" transform="matrix(-1,0,0,1,59.86,-106.6)">
		<g id="g4289" transform="matrix(-1,0,0,1,-16.98,0.8136)">
			<g id="g4291">
				<path id="path4293" class="st0" d="M-56.7,52.5c0,5.4-3.3,9.6-7.7,11.5v10.3c0,8.4-6.9,15.3-15.3,15.3h-4.3
					c0.3,1.2,0.5,2.5,0.5,3.8v10c4.4,1.9,7.7,6.1,7.7,11.5c0,7.7-6.1,13.4-13.4,13.4c-7.3,0-13.4-5.8-13.4-13.4
					c0-5.4,3.3-9.6,7.7-11.5v-8.2c-1.2,0.4-2.5,0.7-3.8,0.7c-3.2,0-6.4-1.3-8.7-3.6c-0.8-0.8-1.4-1.7-2-2.7h-8.4
					c-2.1,0-3.8,1.9-3.8,3.8v10c4.4,1.9,7.7,6.1,7.7,11.5c0,7.7-6.1,13.4-13.4,13.4S-141,122.7-141,115c0-5.4,3.3-9.2,7.6-11.5v-10
					c0-8.8,6.9-15.3,15.3-15.3h4.3c-0.3-1.2-0.5-2.5-0.5-3.8V64c-4.4-1.9-7.7-6.1-7.7-11.5c0-7.3,6-13.4,13.4-13.4
					c7.4,0,13.4,6.1,13.4,13.4c0,5.4-3.3,9.6-7.7,11.5v8.2c1.2-0.4,2.5-0.7,3.9-0.7c3.2,0,6.4,1.3,8.6,3.6c0.9,0.9,1.6,2,2.2,3.1
					h8.3c2.1,0,3.8-1.9,3.8-3.8V64c-4.4-1.9-7.7-6.1-7.7-11.5c0-7.3,6-13.4,13.4-13.4C-62.7,39.1-56.7,45.2-56.7,52.5z M-60.5,52.5
					c0-5-4.3-9.6-9.6-9.6c-5.3,0-9.6,4.6-9.6,9.6c0,4.2,2.7,7.7,6.4,8.8l1.3,0.4v12.6c0,4.2-3.4,7.7-7.7,7.7h-7
					c0.1,0.6,0.2,1.1,0.2,1.7c0,0.2,0,0.3-0.1,0.5c0.4,0.5,0.7,1,1,1.6h5.9c6.3,0,11.5-5.4,11.5-11.5V61.7l1.3-0.4
					C-63.2,60.2-60.5,56.7-60.5,52.5z M-79.7,115c0-4.2-2.7-7.7-6.4-8.8l-1.3-0.4V93.5c0-1.4-0.3-2.8-0.7-3.9c-0.6,1-1.2,2-2.1,2.8
					c-0.3,0.3-0.7,0.6-1,0.9c0,0.1,0,0.2,0,0.3v12.3l-1.3,0.4c-3.7,1.1-6.4,4.6-6.4,8.8c0,5.4,4.3,9.6,9.6,9.6
					C-84,124.6-79.7,120.4-79.7,115z M-98.9,52.5c0-5-4.3-9.6-9.6-9.6c-5.3,0-9.6,4.6-9.6,9.6c0,4.2,2.7,7.7,6.4,8.8l1.3,0.4v12.6
					c0,1.3,0.3,2.6,0.7,3.7c0.6-1.1,1.3-2.1,2.2-3c0.3-0.3,0.6-0.5,0.9-0.8V61.7l1.3-0.4C-101.6,60.2-98.9,56.7-98.9,52.5z
					 M-110.9,85.9c-0.1-0.7-0.2-1.4-0.2-2.1c0-0.1,0-0.1,0-0.2c-0.4-0.5-0.7-1-1-1.5h-5.9c-6.4,0-11.5,5-11.5,11.5v10.7v1.5
					l-1.3,0.4c-3.7,1.1-6.4,4.6-6.4,8.8c0,5.4,4.3,9.6,9.6,9.6s9.6-4.2,9.6-9.6c0-4.2-2.7-7.7-6.4-8.8l-1.3-0.4V93.5
					c0-4.2,3.4-7.7,7.7-7.7H-110.9z"/>
			</g>
		</g>
	</g>
</g>
<path class="st1" d="M11.5,11.5l69,69"/>
<path class="st1" d="M80.5,11.5l-69,69"/>
</svg>
