<?xml version="1.0" encoding="utf-8"?>
<!-- Generator: Adobe Illustrator 23.0.3, SVG Export Plug-In . SVG Version: 6.00 Build 0)  -->
<svg version="1.1"
	 id="Ebene_1" xmlns:cc="http://creativecommons.org/ns#" xmlns:dc="http://purl.org/dc/elements/1.1/" xmlns:rdf="http://www.w3.org/1999/02/22-rdf-syntax-ns#" xmlns:svg="http://www.w3.org/2000/svg"
	 xmlns="http://www.w3.org/2000/svg" xmlns:xlink="http://www.w3.org/1999/xlink" x="0px" y="0px" viewBox="0 0 609.4 609.4"
	 style="enable-background:new 0 0 609.4 609.4;" xml:space="preserve">
<style type="text/css">
	.st0{fill:#F6A416;}
</style>
<g id="g4151" transform="matrix(2.553,0,0,2.553,-2149,281.5)">
	<path id="path26" class="st0" d="M902-103.7c-15.2-0.2-32.9,5.8-33.6,27.4v181.7l14.5,16.3L1036,96c10-1.8,18-14.3,18-27.7V-79.8
		l-140.4-23c-1.6-0.3-8.6-0.8-10.1-0.8C903-103.7,902.5-103.7,902-103.7z M948.9-61.7c1.8,0,3.6,0.1,5.4,0.3v0
		c12.8,1.5,22.1,7.5,28.2,18c6,10.3,8.9,25,8.9,44.3c0,17.7-2.2,31.6-6.5,41.8c-4.4,10.4-11.1,17.2-20.4,20.4c1,4.8,2.4,8,4.2,9.7
		c1.1,0.9,2.6,1.5,4.4,1.7h0.1h0.3h2c0.8,0,1.2,0.2,2.7,0v14.1l-6.4,0.9c-1.9,0.2-3.7,0.3-5.4,0.3c-5.6,0-10.1-1.3-13.6-4.1
		c-4.5-3.6-7.8-10.6-9.9-20.9c-9.8-2.1-17.5-8.3-22.8-18.8c-5.3-10.6-8.1-26.2-8.1-46.5c0-21.9,3.8-38.1,11.1-48.3
		C929.5-57.5,938-61.7,948.9-61.7z M1008-54.1l12,1.3v21.7l13,1v13.6l-13-0.7v49.7c0,4.3,1,7.1,2,8.4c0,1.1,2,1.7,3,1.7h1
		c3-0.2,6-1,9-2.5v12.4c-6,2.5-11,3.9-17,4.4c0,0.1-1,0.1-2,0.1c-5,0-8-1.4-11-4.2c-3-3.3-5-8.6-5-15.8v-55l-5.4-0.3v-14.6l8.4,0.6
		L1008-54.1z M953.2-45.1c-4.7,0-8.3,2.7-10.8,8.2c-2.7,6-4,18.3-4,37c0,18,1.3,30.8,4,38.3c2.5,7.2,6.3,10.7,11.3,10.7h0.6
		c5-0.3,8.7-3.8,11.3-10.3c2.5-6.5,3.7-19.2,3.7-38.2c0-17.1-1.2-28.8-3.7-35.3c-2.5-6.5-6.3-10-11.3-10.4H953.2z"/>
</g>
</svg>
