<?xml version="1.0" encoding="utf-8"?>
<!-- Generator: Adobe Illustrator 23.0.3, SVG Export Plug-In . SVG Version: 6.00 Build 0)  -->
<svg version="1.1"
	 id="svg4142" xmlns:cc="http://creativecommons.org/ns#" xmlns:dc="http://purl.org/dc/elements/1.1/" xmlns:rdf="http://www.w3.org/1999/02/22-rdf-syntax-ns#" xmlns:svg="http://www.w3.org/2000/svg"
	 xmlns="http://www.w3.org/2000/svg" xmlns:xlink="http://www.w3.org/1999/xlink" x="0px" y="0px" viewBox="0 0 102.4 102.4"
	 style="enable-background:new 0 0 102.4 102.4;" xml:space="preserve">
<style type="text/css">
	.st0{fill:#F6A416;}
</style>
<g id="layer1" transform="translate(-284.4,-501.6)">
	<path id="path4792" class="st0" d="M335.9,511.4c-10.2-0.6-19.9,7.3-21.6,17.4c-3,7,5.8,11,11,7.4c2.5-6,7.5-14.3,15.1-9.3
		c7.8,4.9,1.7,14.1-2.4,19.3c-4.9,6.2-9.1,11.8-7.1,18.4c4.3,14.2,8.6,3,10.2-0.1c3.4-6.6,4.8-7,9.2-12.9c5.1-6.9,9.3-15.9,6.2-24.6
		C354.2,517.7,345.4,511,335.9,511.4L335.9,511.4z M335.4,579.2c-9.1,1.9-7.3,15.6,2.2,13.7C347,590.9,344.5,577.2,335.4,579.2z"/>
</g>
</svg>
