<?xml version="1.0" encoding="utf-8"?>
<!-- Generator: Adobe Illustrator 23.0.3, SVG Export Plug-In . SVG Version: 6.00 Build 0)  -->
<svg version="1.1" id="Ebene_1" xmlns="http://www.w3.org/2000/svg" xmlns:xlink="http://www.w3.org/1999/xlink" x="0px" y="0px"
	 viewBox="0 0 24 24" style="enable-background:new 0 0 24 24;" xml:space="preserve">
<style type="text/css">
	.st0{fill:#F6A416;}
</style>
<path class="st0" d="M14.7,19.5c-2.5,0-4.5-2-4.5-4.5c0-0.6-0.4-1-1-1s-1,0.4-1,1c0,3.6,2.9,6.5,6.5,6.5s6.5-2.9,6.5-6.5
	s-2.9-6.5-6.5-6.5c-0.6,0-1,0.4-1,1s0.4,1,1,1c2.5,0,4.5,2,4.5,4.5S17.2,19.5,14.7,19.5z M5.9,12.5c-0.6,0-1-0.4-1-1s0.4-1,1-1h3.2
	L7.4,8.8L3.3,4.7c-0.4-0.4-0.4-1,0-1.4C3.5,3.1,3.7,3,4,3s0.5,0.1,0.7,0.3l4.1,4.1l1.7,1.7V5.8c0-0.6,0.4-1,1-1s1,0.4,1,1v6.7H5.9
	 M7.5,0.8c0.6,0,1,0.4,1,1s-0.4,1-1,1H4.3L6,4.5l4.1,4.1c0.4,0.4,0.4,1,0,1.4c-0.2,0.2-0.4,0.3-0.7,0.3S8.9,10.2,8.7,10L4.6,5.9
	L2.9,4.2v3.2c0,0.6-0.4,1-1,1s-1-0.4-1-1V0.8H7.5"/>
</svg>
